<?xml version="1.0" encoding="UTF-8" standalone="no"?>
<!DOCTYPE svg PUBLIC "-//W3C//DTD SVG 1.1//EN" "http://www.w3.org/Graphics/SVG/1.1/DTD/svg11.dtd">
<svg width="100%" height="100%" viewBox="0 0 249 51" version="1.1" xmlns="http://www.w3.org/2000/svg" xmlns:xlink="http://www.w3.org/1999/xlink" xml:space="preserve" xmlns:serif="http://www.serif.com/" style="fill-rule:evenodd;clip-rule:evenodd;stroke-linejoin:round;stroke-miterlimit:2;">
    <g transform="matrix(1,0,0,1,-138.834,-67.5427)">
        <g transform="matrix(4.89402,0,0,4.89402,-439.865,-386.419)">
            <g transform="matrix(12,0,0,12,117.967,101.127)">
                <path d="M0.33,-0.287C0.254,-0.305 0.169,-0.308 0.163,-0.357C0.158,-0.399 0.194,-0.433 0.272,-0.431C0.354,-0.429 0.36,-0.364 0.36,-0.364L0.462,-0.393C0.447,-0.465 0.39,-0.511 0.285,-0.515C0.034,-0.523 0.036,-0.321 0.08,-0.273C0.118,-0.231 0.186,-0.219 0.237,-0.211C0.285,-0.203 0.351,-0.192 0.337,-0.135C0.327,-0.095 0.284,-0.079 0.243,-0.078C0.136,-0.078 0.135,-0.147 0.135,-0.147L0.023,-0.123C0.023,-0.123 0.042,0.01 0.234,0.008C0.331,0.007 0.426,-0.033 0.442,-0.124C0.456,-0.206 0.418,-0.266 0.33,-0.287Z" style="fill-rule:nonzero;"/>
            </g>
            <g transform="matrix(12,0,0,12,124.027,101.127)">
                <path d="M0.205,-0.373L0.209,-0.419L0.267,-0.419L0.324,-0.419L0.332,-0.505L0.27,-0.505L0.217,-0.505L0.224,-0.559L0.238,-0.697L0.129,-0.669L0.118,-0.563L0.113,-0.504L0.037,-0.505L0.028,-0.419L0.105,-0.42L0.099,-0.375L0.079,-0.172C0.079,-0.171 0.079,-0.17 0.079,-0.169C0.07,-0.083 0.049,0.042 0.295,-0.001L0.282,-0.095C0.282,-0.095 0.185,-0.067 0.183,-0.128C0.182,-0.137 0.186,-0.181 0.192,-0.238L0.205,-0.373Z" style="fill-rule:nonzero;"/>
            </g>
            <g transform="matrix(12,0,0,12,128.119,101.127)">
                <path d="M0.474,-0.253C0.48,-0.335 0.498,-0.398 0.455,-0.455C0.441,-0.473 0.409,-0.494 0.374,-0.503C0.294,-0.523 0.177,-0.514 0.112,-0.457C0.077,-0.426 0.063,-0.385 0.063,-0.385L0.157,-0.362C0.172,-0.397 0.207,-0.422 0.267,-0.424C0.317,-0.425 0.355,-0.416 0.372,-0.39C0.388,-0.368 0.386,-0.343 0.371,-0.327C0.335,-0.29 0.236,-0.296 0.162,-0.282C0.077,-0.265 0.012,-0.193 0.019,-0.11C0.024,-0.043 0.079,0.009 0.18,0.009C0.306,0.009 0.353,-0.062 0.353,-0.062L0.353,0.001L0.476,0.001L0.46,-0.099L0.474,-0.253ZM0.368,-0.2C0.359,-0.114 0.247,-0.059 0.176,-0.083C0.133,-0.097 0.118,-0.139 0.147,-0.174C0.188,-0.224 0.31,-0.197 0.372,-0.242C0.372,-0.242 0.372,-0.239 0.368,-0.2Z" style="fill-rule:nonzero;"/>
            </g>
            <g transform="matrix(12,0,0,12,134.251,101.127)">
                <path d="M0.814,-0.397C0.798,-0.478 0.735,-0.514 0.653,-0.514C0.543,-0.514 0.495,-0.451 0.478,-0.424C0.478,-0.424 0.478,-0.425 0.478,-0.425C0.464,-0.462 0.44,-0.488 0.406,-0.502C0.385,-0.51 0.36,-0.514 0.334,-0.514C0.216,-0.511 0.175,-0.432 0.175,-0.432L0.182,-0.505L0.082,-0.505L0.032,0L0.136,0L0.162,-0.267C0.165,-0.299 0.17,-0.328 0.179,-0.35C0.197,-0.397 0.247,-0.427 0.291,-0.429C0.369,-0.434 0.393,-0.376 0.384,-0.278L0.358,0L0.46,0L0.487,-0.273C0.489,-0.288 0.491,-0.303 0.493,-0.316C0.496,-0.331 0.5,-0.344 0.504,-0.356C0.522,-0.403 0.572,-0.427 0.615,-0.429C0.694,-0.434 0.718,-0.376 0.708,-0.278L0.683,0L0.789,0L0.811,-0.222C0.817,-0.282 0.822,-0.358 0.814,-0.397Z" style="fill-rule:nonzero;"/>
            </g>
            <g transform="matrix(12,0,0,12,144.451,101.127)">
                <path d="M0.334,-0.514C0.239,-0.507 0.199,-0.443 0.199,-0.443L0.205,-0.506L0.099,-0.506L0.032,0.167L0.138,0.167C0.141,0.136 0.161,-0.058 0.161,-0.058C0.161,-0.058 0.194,0.005 0.286,0.008C0.357,0.011 0.497,-0.023 0.52,-0.248C0.543,-0.477 0.421,-0.52 0.334,-0.514ZM0.413,-0.243C0.402,-0.141 0.349,-0.069 0.261,-0.09C0.213,-0.101 0.171,-0.149 0.181,-0.245C0.191,-0.348 0.23,-0.406 0.294,-0.418C0.396,-0.438 0.423,-0.35 0.413,-0.243Z" style="fill-rule:nonzero;"/>
            </g>
            <g transform="matrix(12,0,0,12,150.943,101.127)">
                <path d="M0.26,-0.515C0.03,-0.507 -0.012,-0.237 0.036,-0.118C0.066,-0.041 0.122,0.007 0.225,0.008C0.385,0.008 0.445,-0.114 0.445,-0.114L0.346,-0.141C0.346,-0.141 0.313,-0.078 0.226,-0.084C0.116,-0.091 0.129,-0.226 0.129,-0.226L0.462,-0.227C0.462,-0.227 0.462,-0.227 0.462,-0.228C0.464,-0.242 0.467,-0.257 0.468,-0.273C0.478,-0.369 0.456,-0.522 0.26,-0.515ZM0.358,-0.306L0.137,-0.306C0.137,-0.306 0.157,-0.431 0.259,-0.43C0.369,-0.43 0.358,-0.306 0.358,-0.306Z" style="fill-rule:nonzero;"/>
            </g>
            <g transform="matrix(12,0,0,12,156.763,101.127)">
                <path d="M0.405,-0.694C0.402,-0.663 0.38,-0.439 0.38,-0.439C0.38,-0.439 0.347,-0.509 0.255,-0.513C0.2,-0.515 0.105,-0.496 0.054,-0.385C0.053,-0.384 0.053,-0.384 0.053,-0.383C0.037,-0.349 0.026,-0.308 0.021,-0.256C0.016,-0.204 0.018,-0.161 0.026,-0.126C0.027,-0.122 0.028,-0.118 0.029,-0.114C0.059,-0.009 0.142,0.014 0.207,0.009C0.302,0.002 0.342,-0.062 0.342,-0.062L0.336,0.001L0.442,0.001L0.511,-0.694L0.405,-0.694ZM0.36,-0.259C0.35,-0.157 0.31,-0.1 0.247,-0.087C0.145,-0.067 0.117,-0.155 0.128,-0.261C0.139,-0.37 0.191,-0.446 0.28,-0.425C0.328,-0.413 0.371,-0.367 0.36,-0.259Z" style="fill-rule:nonzero;"/>
            </g>
            <g transform="matrix(12,0,0,12,163.279,101.127)">
                <path d="M0.26,-0.515C0.03,-0.507 -0.012,-0.237 0.036,-0.118C0.066,-0.041 0.122,0.007 0.225,0.008C0.385,0.008 0.445,-0.114 0.445,-0.114L0.346,-0.141C0.346,-0.141 0.313,-0.078 0.226,-0.084C0.116,-0.091 0.129,-0.226 0.129,-0.226L0.462,-0.227C0.462,-0.227 0.462,-0.227 0.462,-0.228C0.464,-0.242 0.467,-0.257 0.468,-0.273C0.478,-0.369 0.456,-0.522 0.26,-0.515ZM0.358,-0.306L0.137,-0.306C0.137,-0.306 0.157,-0.431 0.259,-0.43C0.369,-0.43 0.358,-0.306 0.358,-0.306Z" style="fill-rule:nonzero;"/>
            </g>
        </g>
    </g>
</svg>
