<?xml version="1.0" encoding="UTF-8" standalone="no"?>
<!DOCTYPE svg PUBLIC "-//W3C//DTD SVG 1.1//EN" "http://www.w3.org/Graphics/SVG/1.1/DTD/svg11.dtd">
<svg width="100%" height="100%" viewBox="0 0 40 40" version="1.1" xmlns="http://www.w3.org/2000/svg" xmlns:xlink="http://www.w3.org/1999/xlink" xml:space="preserve" xmlns:serif="http://www.serif.com/" style="fill-rule:evenodd;clip-rule:evenodd;stroke-linejoin:round;stroke-miterlimit:2;">
    <g transform="matrix(1,0,0,1,-20.29,-35.17)">
        <path d="M24.54,62L55.75,62C57.944,62 59.75,63.806 59.75,66L59.75,69.85C59.75,70.399 59.299,70.85 58.75,70.85L21.54,70.85C20.991,70.85 20.54,70.399 20.54,69.85L20.54,66C20.54,63.806 22.346,62 24.54,62Z" style="fill:rgb(255,98,66);fill-rule:nonzero;"/>
        <path d="M59.75,66.58C59.75,64.057 57.673,61.98 55.15,61.98L25.15,61.98C22.627,61.98 20.55,64.057 20.55,66.58L20.55,69.69C20.545,69.767 20.545,69.843 20.55,69.92C20.78,67.586 22.764,65.784 25.11,65.78L55.11,65.78C57.454,65.789 59.436,67.588 59.67,69.92C59.675,69.843 59.675,69.767 59.67,69.69L59.75,66.58Z" style="fill:rgb(255,134,110);fill-rule:nonzero;"/>
        <path d="M46.07,45.54L34.22,45.54C33.942,45.537 33.668,45.483 33.41,45.38C34.03,46.67 35.72,51.18 35.72,61.98L44.57,61.98C44.57,51.18 46.26,46.67 46.88,45.38C46.622,45.483 46.348,45.537 46.07,45.54Z" style="fill:rgb(255,98,66);fill-rule:nonzero;"/>
        <path d="M34.22,45.54C33.942,45.537 33.668,45.483 33.41,45.38C33.687,45.975 33.917,46.59 34.1,47.22L46.19,47.22C46.373,46.59 46.603,45.975 46.88,45.38C46.622,45.483 46.348,45.537 46.07,45.54L34.22,45.54Z" style="fill:rgb(224,65,34);fill-rule:nonzero;"/>
        <path d="M56.85,73.85C56.697,74.319 56.254,74.637 55.76,74.63L24.53,74.63C24.036,74.637 23.593,74.319 23.44,73.85L22.44,70.85L57.86,70.85L56.85,73.85Z" style="fill:rgb(101,103,105);fill-rule:nonzero;"/>
        <path d="M24.54,62L55.75,62C57.944,62 59.75,63.806 59.75,66L59.75,69.85C59.75,70.399 59.299,70.85 58.75,70.85L21.54,70.85C20.991,70.85 20.54,70.399 20.54,69.85L20.54,66C20.54,63.806 22.346,62 24.54,62Z" style="fill:none;fill-rule:nonzero;stroke:black;stroke-width:0.5px;"/>
        <path d="M46.07,45.54L34.22,45.54C33.942,45.537 33.668,45.483 33.41,45.38C34.03,46.67 35.72,51.18 35.72,61.98L44.57,61.98C44.57,51.18 46.26,46.67 46.88,45.38C46.622,45.483 46.348,45.537 46.07,45.54Z" style="fill:none;fill-rule:nonzero;stroke:black;stroke-width:0.5px;"/>
        <path d="M56.85,73.85C56.697,74.319 56.254,74.637 55.76,74.63L24.53,74.63C24.036,74.637 23.593,74.319 23.44,73.85L22.44,70.85L57.86,70.85L56.85,73.85Z" style="fill:none;fill-rule:nonzero;stroke:black;stroke-width:0.5px;"/>
        <path d="M35.64,58.19L44.65,58.19" style="fill:none;fill-rule:nonzero;stroke:black;stroke-width:0.5px;"/>
        <path d="M48.37,37.42C48.37,36.316 47.474,35.42 46.37,35.42L33.92,35.42C32.816,35.42 31.92,36.316 31.92,37.42L31.92,43.54C31.92,44.644 32.816,45.54 33.92,45.54L46.37,45.54C47.474,45.54 48.37,44.644 48.37,43.54L48.37,37.42Z" style="fill:rgb(255,98,66);"/>
        <path d="M46.07,35.42L34.22,35.42C32.958,35.42 31.92,36.458 31.92,37.72L31.92,40.88C31.92,39.618 32.958,38.58 34.22,38.58L46.07,38.58C47.332,38.58 48.37,39.618 48.37,40.88L48.37,37.72C48.37,36.458 47.332,35.42 46.07,35.42Z" style="fill:rgb(255,134,110);fill-rule:nonzero;"/>
        <path d="M48.37,37.42C48.37,36.316 47.474,35.42 46.37,35.42L33.92,35.42C32.816,35.42 31.92,36.316 31.92,37.42L31.92,43.54C31.92,44.644 32.816,45.54 33.92,45.54L46.37,45.54C47.474,45.54 48.37,44.644 48.37,43.54L48.37,37.42Z" style="fill:none;stroke:black;stroke-width:0.5px;"/>
    </g>
</svg>
