<?xml version="1.0" encoding="UTF-8" standalone="no"?><!DOCTYPE svg PUBLIC "-//W3C//DTD SVG 1.1//EN" "http://www.w3.org/Graphics/SVG/1.1/DTD/svg11.dtd"><svg width="100%" height="100%" viewBox="0 0 1566 1238" version="1.1" xmlns="http://www.w3.org/2000/svg" xmlns:xlink="http://www.w3.org/1999/xlink" xml:space="preserve" xmlns:serif="http://www.serif.com/" style="fill-rule:evenodd;clip-rule:evenodd;stroke-linecap:round;stroke-linejoin:round;stroke-miterlimit:1.5;"><g><path d="M1546.81,923.634c10.963,-1.084 16.18,31.697 17.041,43.505c0.723,9.91 -6.304,19.114 -11.875,27.341c-6.58,9.72 -17.858,21.358 -27.608,30.975c-9.694,9.561 -20.906,18.714 -30.892,26.724c-9.368,7.513 -19.105,14.572 -29.028,21.335c-10.767,7.339 -24.912,15.333 -35.574,22.699c-9.768,6.748 -19.628,18.154 -28.399,21.495c-7.56,2.88 -18.165,-3.947 -24.227,-1.448c-6.061,2.499 -7.307,12.592 -12.143,16.442c-4.729,3.766 -11.49,3.901 -16.87,6.658c-6.38,3.27 -14.104,8.936 -21.412,12.96c-8.302,4.571 -21.889,11.559 -28.397,14.466c-3.366,1.504 -6.973,3.236 -10.651,2.98c-4.581,-0.319 -12.381,-6.539 -16.835,-4.895c-4.453,1.644 -4.981,11.441 -9.885,14.761c-5.989,4.055 -17.402,6.29 -26.053,9.571c-12.237,4.64 -36.684,16.767 -47.366,18.27c-6.31,0.889 -10.863,-9.796 -16.729,-9.247c-5.866,0.548 -11.222,10.85 -18.468,12.539c-16.958,3.951 -66.984,10.049 -83.278,11.167c-5.042,0.347 -11.092,-4.923 -14.491,-4.456c-3.089,0.425 -2.815,6.804 -5.9,7.259c-15.253,2.245 -68.521,6.938 -85.62,6.215c-6.656,-0.281 -12.914,-9.902 -16.975,-10.549c-3.276,-0.523 -4.078,6.514 -7.392,6.663c-14.156,0.637 -62.221,-0.239 -77.548,-2.842c-6.328,-1.075 -8.065,-11.801 -14.41,-12.776c-60.118,-9.237 -282.61,-39.838 -346.297,-42.649c-14.698,-0.649 -24.615,16.253 -35.823,25.785c-12.254,10.421 -21.029,31.261 -37.698,36.742c-20.24,6.654 -68.091,4.139 -83.742,3.186c-4.495,-0.274 -6.611,-8.663 -10.16,-8.909c-3.549,-0.246 -6.697,6.958 -11.134,7.432c-14.765,1.574 -62.734,3.778 -77.458,2.018c-5.506,-0.658 -7.134,-11.403 -10.886,-12.579c-3.752,-1.177 -7.34,5.308 -11.625,5.52c-14.639,0.726 -60.914,1.049 -76.213,-1.167c-6.514,-0.944 -11.212,-11.268 -15.582,-12.129c-4.158,-0.819 -6.431,7.489 -10.636,6.964c-9.323,-1.165 -32.804,-9.76 -45.304,-13.952c-10.03,-3.364 -21.01,-6.985 -29.695,-11.201c-7.94,-3.855 -15.821,-8.813 -22.414,-14.095c-6.391,-5.121 -16.324,-9.452 -17.141,-17.601c-2.658,-26.531 -2.853,-121.058 1.19,-141.59c1.9,-9.65 14.86,12.978 23.068,18.396c9.089,6.001 20.265,13.253 31.468,17.609c11.649,4.529 25.576,6.559 38.43,9.569c16.849,3.945 41.843,10.289 62.669,14.103c20.626,3.776 42.237,6.679 62.29,8.775c19.278,2.016 38.705,2.251 58.027,3.801c23.722,1.902 56.214,4.983 84.308,7.614c29.984,2.808 65.977,6.001 95.596,9.233c27.417,2.991 54.711,7.032 82.114,10.156c27.409,3.124 54.883,5.833 82.341,8.592c27.625,2.776 56.701,4.964 83.405,8.064c25.675,2.98 51.322,6.321 76.823,10.535c26.187,4.327 55.022,12.024 80.299,15.427c23.634,3.181 47.536,4.112 71.367,4.989c24.636,0.907 55.684,0.756 76.448,0.451c16.062,-0.236 32.76,-0.536 48.136,-2.281c14.864,-1.686 29.516,-4.964 44.124,-8.186c20,-4.41 50.847,-11.181 75.876,-18.277c28.938,-8.205 70.443,-19.922 97.751,-30.95c23.147,-9.348 44.545,-23.316 66.094,-35.217c21.252,-11.737 45.969,-25.607 63.202,-36.193c13.806,-8.481 27.17,-17.696 40.201,-27.325c14.839,-10.965 33.483,-24.546 48.833,-38.465c16.262,-14.746 37.771,-48.924 48.733,-50.007Z" style="fill:#a8997b;stroke:#a8997b;stroke-width:4.17px;"/><path d="M1481.77,824.651c-3.867,2.171 6.058,26.5 3.171,38.257c-2.888,11.757 -14.375,24.305 -20.497,32.287c-4.568,5.956 -10.544,10.71 -16.234,15.605c-8.107,6.975 -20.812,18.583 -32.411,26.246c-15.314,10.117 -39.539,23.16 -59.471,34.456c-23.221,13.159 -55.561,32.549 -79.852,44.501c-21.322,10.491 -43.404,19.531 -65.893,27.209c-24.81,8.47 -54.939,17.19 -82.967,23.611c-29.061,6.657 -65.44,13.47 -91.398,16.333c-21.324,2.353 -42.907,1.419 -64.352,0.849c-23.192,-0.615 -49.949,-1.999 -74.798,-4.543c-29.269,-2.998 -72.339,-9.69 -100.818,-13.441c-23.343,-3.074 -46.765,-5.578 -70.052,-9.061c-24.898,-3.725 -52.788,-9.633 -79.337,-13.285c-26.549,-3.651 -54.884,-5.276 -79.956,-8.624c-23.592,-3.15 -49.086,-9.032 -70.476,-11.464c-19.194,-2.183 -38.568,-2.306 -57.867,-3.13c-27.635,-1.181 -72.09,-1.654 -107.944,-3.954c-35.803,-2.296 -72.362,-5.082 -107.179,-9.843c-34.161,-4.671 -70.889,-6.891 -101.726,-18.724c-30.605,-11.744 -68.274,-48.503 -83.3,-52.274c-9.839,-2.469 -1.921,22.042 -6.855,29.651c-4.934,7.608 -18.618,7.7 -22.751,15.999c-4.433,8.901 -9.785,26.368 -3.849,37.409c6.132,11.404 25.41,23.372 40.639,31.018c18.116,9.095 44.696,18.012 68.052,23.55c27.771,6.586 65.639,12.073 98.575,15.964c32.877,3.883 67.458,4.614 99.041,7.378c30.192,2.642 60.297,6.198 90.455,9.205c34.664,3.456 83.098,8.011 117.529,11.53c29.702,3.035 59.393,6.195 89.057,9.582c40.308,4.601 113.845,12.73 152.793,18.027c27.102,3.686 53.813,9.914 80.894,13.756c33.116,4.698 78.249,13.653 117.803,14.432c41.662,0.821 88.656,-1.923 132.17,-9.509c47.128,-8.217 112.987,-27.711 150.599,-39.788c25.986,-8.344 52.611,-21.908 75.074,-32.676c20.352,-9.756 40.162,-20.645 59.707,-31.933c20.172,-11.651 41.785,-23.963 61.327,-37.971c20.879,-14.965 46.848,-36.399 63.946,-51.824c13.895,-12.535 32.662,-26.933 38.64,-40.727c5.584,-12.886 -0.134,-29.569 -2.773,-42.04c-2.435,-11.509 -8,-26.651 -13.058,-32.786c-3.763,-4.565 -12.372,-0.73 -17.287,-4.024c-7.276,-4.876 -22.505,-27.404 -26.371,-25.234Z" style="fill:#4e4d4f;stroke:#4e4d4f;stroke-width:4.17px;"/><g><path d="M776.53,319.444c0.295,3.435 -6.845,8.828 -8.546,5.829c-6.685,-11.783 -21.846,-56.884 -31.561,-76.529c-7.274,-14.709 -19.065,-29.667 -26.727,-41.339c-6.321,-9.628 -13.183,-19.909 -19.248,-28.694c-5.588,-8.095 -10.167,-17.084 -17.143,-24.019c-7.96,-7.914 -21.251,-16.289 -30.617,-23.468c-8.525,-6.536 -20.057,-15.481 -25.576,-19.608c-2.438,-1.823 -7.345,-2.116 -7.539,-5.153c-0.235,-3.676 3.345,-13.544 6.13,-16.9c2.355,-2.838 7.159,-4.614 10.58,-3.236c3.822,1.539 7.802,8.789 12.349,12.469c6.577,5.321 18.643,12.243 27.109,19.457c9.081,7.738 19.018,18.446 27.382,26.974c7.759,7.911 16.397,15.893 22.8,24.192c6.106,7.915 11.362,17.324 15.616,25.603c3.966,7.719 8.257,16.52 9.908,24.075c1.513,6.921 -1.915,14.698 0,21.252c1.916,6.553 8.114,11.781 11.492,18.069c3.816,7.101 8.149,16.128 11.402,24.541c3.931,10.171 11.581,29.432 12.189,36.485Z" style="fill:#e0c638;stroke:#e0c638;stroke-width:4.17px;"/><path d="M969.422,726.064c6.591,-4.214 21.384,-21.077 25.831,-32.576c4.379,-11.323 1.073,-26.874 0.85,-36.413c-0.163,-6.976 0.914,-14.567 -2.185,-20.819c-3.305,-6.666 -11.529,-15.387 -17.643,-19.176c-5.488,-3.401 -13.285,-2.991 -19.04,-3.557c-5.14,-0.506 -14.469,-1.814 -15.494,0.162c-1.025,1.976 6.52,10.358 9.344,11.693c2.545,1.203 5.149,-4.085 7.601,-3.681c2.453,0.404 5.897,3.228 7.114,6.106c1.603,3.792 2.015,11.055 2.507,16.644c0.6,6.823 2.29,16.837 1.096,24.295c-1.162,7.26 -5.689,14.811 -8.26,20.454c-2.099,4.61 -6.257,8.475 -7.162,13.404c-0.905,4.93 -0.843,12.263 1.73,16.174c2.574,3.91 9.35,10.079 13.711,7.29Z" style="fill:#e0c638;stroke:#e0c638;stroke-width:4.17px;"/><path d="M868.354,669.498c2.558,2.381 6.994,4.112 10.154,2.618c4.18,-1.976 10.762,-8.935 14.924,-14.478c4.905,-6.533 11.517,-16.307 14.508,-24.722c2.901,-8.164 3.607,-18.228 3.434,-25.766c-0.153,-6.657 -2.416,-13.734 -4.475,-19.466c-1.902,-5.296 -4.439,-10.476 -7.878,-14.93c-3.54,-4.586 -8.972,-9.578 -13.365,-12.588c-3.876,-2.656 -8.393,-4.506 -12.992,-5.469c-5.083,-1.065 -15.778,-3.614 -17.51,-0.918c-1.732,2.695 4.673,14.541 7.117,17.093c1.788,1.867 5.627,-3.507 7.549,-1.778c2.605,2.344 6.18,10.228 8.081,15.844c2.014,5.95 4.211,13.108 4.001,19.856c-0.216,6.952 -2.676,15.251 -5.299,21.853c-2.535,6.382 -7.684,13.042 -10.439,17.761c-2.048,3.507 -6.444,6.506 -6.091,10.552c0.365,4.182 5.208,11.679 8.281,14.538Z" style="fill:#e0c638;stroke:#e0c638;stroke-width:4.17px;"/><path d="M788.769,617.898c2.685,1.968 6.627,4.697 9.514,3.039c4.616,-2.651 13.319,-11.669 18.186,-18.944c5.334,-7.972 10.832,-19.499 13.814,-28.886c2.799,-8.814 3.44,-18.679 4.076,-27.441c0.606,-8.355 1.504,-17.331 -0.261,-25.129c-1.765,-7.799 -5.716,-16.57 -10.329,-21.661c-4.362,-4.814 -11.057,-7.261 -17.347,-8.886c-6.346,-1.639 -15.387,-1.549 -20.727,-0.948c-4.041,0.456 -11.032,1.025 -11.314,4.559c-0.282,3.534 5.888,14.274 9.621,16.644c3.66,2.324 9.052,-3.5 12.777,-2.424c3.724,1.077 7.531,5.574 9.569,8.885c1.974,3.206 2.356,7.225 2.658,10.978c0.389,4.838 0.971,12.703 -0.321,18.049c-1.243,5.142 -4.851,9.406 -7.433,14.024c-2.816,5.039 -6.123,10.918 -9.464,16.207c-3.447,5.456 -8.609,11.735 -11.216,16.526c-2.071,3.805 -5.757,8.097 -4.427,12.221c1.367,4.234 8.934,10.483 12.624,13.187Z" style="fill:#e0c638;stroke:#e0c638;stroke-width:4.17px;"/><path d="M704.421,546.455c3.995,2.063 11.048,4.57 15.049,1.502c5.256,-4.031 11.926,-17.081 16.491,-25.687c4.396,-8.289 8.217,-16.96 10.897,-25.952c3.526,-11.829 8.663,-33.191 10.258,-45.02c1.157,-8.579 2.609,-19.674 -0.687,-25.959c-3.296,-6.286 -12.916,-9.227 -19.09,-11.755c-5.638,-2.308 -11.886,-2.877 -17.954,-3.414c-6.127,-0.542 -17.191,-2.744 -18.809,0.161c-1.618,2.905 6.415,14.714 9.1,17.269c1.756,1.672 4.813,-2.965 7.01,-1.94c3.046,1.422 8.389,6.227 11.265,10.47c2.965,4.374 6.137,10.14 6.523,15.773c0.385,5.634 -1.986,12.273 -4.211,18.03c-2.448,6.329 -6.852,13.367 -10.473,19.946c-3.845,6.983 -9.109,16.025 -12.595,21.955c-2.698,4.589 -6.373,9.672 -8.322,13.629c-1.57,3.189 -4.28,6.679 -3.372,10.115c0.925,3.499 4.926,8.814 8.92,10.877Z" style="fill:#e0c638;stroke:#e0c638;stroke-width:4.17px;"/><path d="M654.841,462.705c-4.844,0.007 -8.539,-5.923 -10.006,-10.54c-1.585,-4.986 -2.605,-14.936 0.499,-19.377c3.103,-4.441 12.012,-5.026 18.123,-7.268c6.54,-2.4 15.05,-2.844 21.116,-7.133c7.264,-5.134 17.778,-15.857 22.464,-23.675c4.097,-6.837 5.826,-16.544 5.648,-23.236c-0.161,-6.063 -2.83,-13.86 -6.717,-16.912c-3.887,-3.053 -12.845,1.772 -16.604,-1.403c-3.759,-3.174 -7.838,-14.729 -5.95,-17.645c1.889,-2.916 11.574,-0.638 17.281,0.147c6.063,0.833 14,2.136 19.1,4.855c4.774,2.545 8.732,6.978 11.496,11.455c2.764,4.478 4.418,10.136 5.087,15.41c0.67,5.275 0.027,11.166 -1.07,16.236c-1.072,4.958 -3.113,9.714 -5.511,14.185c-2.603,4.853 -6.5,10.125 -10.106,14.935c-3.97,5.295 -9.222,11.798 -13.71,16.833c-4.172,4.68 -8.301,9.62 -13.221,13.377c-4.92,3.757 -10.771,6.285 -16.299,9.165c-6.319,3.292 -16.348,10.582 -21.62,10.591Z" style="fill:#e0c638;stroke:#e0c638;stroke-width:4.17px;"/><path d="M633.399,352.881c4.159,2.791 12.778,1.051 19.04,0.021c6.456,-1.062 13.93,-3.644 19.694,-6.394c5.414,-2.583 9.887,-6.796 14.888,-10.107c5.264,-3.483 12.292,-6.855 16.691,-10.794c3.997,-3.58 7.87,-7.802 9.704,-12.845c1.983,-5.454 2.523,-14.117 2.196,-19.88c-0.289,-5.085 -1.84,-10.496 -4.16,-14.701c-2.311,-4.189 -6.308,-7.847 -9.756,-10.527c-3.229,-2.508 -7,-4.449 -10.937,-5.552c-3.975,-1.114 -9.075,-0.868 -12.914,-1.131c-3.369,-0.231 -7.859,-2.955 -10.121,-0.448c-2.699,2.991 -8.573,14.424 -6.074,18.397c2.499,3.973 15.643,3.92 21.069,5.44c3.871,1.084 9.354,1.541 11.486,3.679c2.132,2.137 2.913,6.518 1.306,9.144c-1.672,2.732 -7.439,5.025 -11.335,7.245c-4.548,2.591 -10.797,6.134 -15.955,8.302c-4.829,2.03 -9.922,3.393 -14.993,4.706c-5.172,1.34 -11.808,2.298 -16.036,3.331c-3.161,0.772 -7.714,0.299 -9.332,2.864c-1.617,2.565 -1.149,8.422 -0.371,12.526c0.923,4.875 1.752,13.933 5.91,16.724Z" style="fill:#e0c638;stroke:#e0c638;stroke-width:4.17px;"/><path d="M629.865,241.691c7.17,2.593 20.279,0.146 30.249,-1.436c10.31,-1.635 23.748,-3.653 31.61,-8.376c7.233,-4.346 11.968,-13.297 15.561,-19.967c3.308,-6.141 6.07,-13.075 5.995,-20.05c-0.076,-6.987 -2.27,-16.499 -6.45,-21.868c-4.179,-5.368 -12.184,-8.812 -18.628,-10.345c-6.443,-1.533 -15.446,-2.2 -20.034,1.149c-4.588,3.349 -8.544,15.163 -7.494,18.946c1.05,3.783 9.408,2.015 13.794,3.753c4.386,1.738 10.969,3.726 12.523,6.674c1.555,2.949 -0.192,8.652 -3.197,11.018c-3.495,2.75 -11.924,4.114 -17.769,5.487c-5.685,1.336 -11.812,2.292 -17.3,2.751c-5.193,0.434 -11.357,-0.192 -15.634,-0c-3.36,0.151 -7.592,-1.169 -10.025,1.154c-2.667,2.545 -7.063,9.128 -5.972,14.12c1.134,5.185 6.108,14.581 12.771,16.99Z" style="fill:#e0c638;stroke:#e0c638;stroke-width:4.17px;"/><path d="M1009.62,697.441c10.061,-2.785 7.995,-22.771 1.918,-31.26c-7.742,-10.814 -32.065,-22.682 -48.369,-33.625c-22.611,-15.176 -64.945,-41.179 -87.298,-57.429c-16.615,-12.078 -32.139,-27.925 -46.821,-40.066c-13.539,-11.194 -27.814,-21.484 -41.272,-32.775c-15.722,-13.192 -40.078,-34.004 -53.062,-46.373c-9.005,-8.578 -15.981,-19.111 -24.843,-27.838c-10.781,-10.617 -45.727,-52.743 -39.844,-35.868c17.042,48.886 85.498,278.312 142.096,329.185c49.32,44.329 164.26,-14.749 197.495,-23.951Z" style="fill:#1e6398;stroke:#1e6398;stroke-width:4.17px;"/></g><path d="M672.247,2.185c-13.44,-1.059 -159.903,6.449 -218.11,9.061c-43.723,1.962 -90.459,3.917 -131.132,6.61c-37.688,2.496 -77.725,5.542 -112.908,9.55c-32.871,3.745 -82.093,6.464 -98.187,14.5c-10.067,5.027 0.28,22.547 1.621,33.719c1.351,11.243 4.646,22.434 6.48,33.738c1.95,12.024 3.925,25.552 5.225,38.407c1.47,14.548 2.29,32.664 3.598,48.88c1.303,16.146 3.356,32.237 4.25,48.411c0.897,16.236 0.783,32.84 1.132,49c0.346,15.987 0.649,31.975 0.961,47.963c0.392,20.041 1.453,50.271 1.391,72.285c-0.056,19.941 -0.552,44.593 -1.76,59.797c-0.842,10.601 -3.853,22.045 -5.487,31.427c-1.443,8.287 -1.581,16.909 -4.315,24.865c-3.053,8.888 -9.672,19.395 -14.006,28.461c-4.108,8.595 -8.688,17.492 -11.996,25.937c-3.155,8.054 -5.912,16.72 -7.852,24.732c-1.855,7.66 -2.616,15.546 -3.786,23.34c-1.511,10.074 -2.195,26.252 -5.284,37.103c-2.828,9.934 -9.408,19.302 -13.25,28.008c-3.517,7.969 -6.726,16.075 -9.801,24.225c-3.174,8.41 -6.759,17.301 -9.24,26.234c-2.764,9.953 -6.981,22.06 -7.344,33.48c-0.982,30.89 -2.357,120.187 1.451,151.865c1.742,14.492 10.482,28.514 21.397,38.204c11.141,9.889 29.51,16.122 45.447,21.134c17.088,5.373 39.218,8.204 57.077,11.107c16.606,2.699 33.36,4.414 50.076,6.313c20.734,2.355 49.471,6.153 74.328,7.819c25.803,1.729 53.678,1.276 80.492,2.556c26.983,1.288 54.317,2.838 81.408,5.172c28.543,2.46 62.105,6.064 89.854,9.585c25.63,3.253 51.027,8.175 76.642,11.546c30.45,4.007 70.779,7.746 106.058,12.498c38.081,5.13 82.142,13.553 122.432,18.279c39.641,4.651 79.4,10.15 119.312,10.081c41.261,-0.072 93.892,-5.675 128.253,-10.513c26.435,-3.722 52.461,-10.475 77.916,-18.516c25.494,-8.053 50.378,-19.031 75.044,-29.801c26.55,-11.592 58.772,-25.967 84.257,-39.752c23.743,-12.843 47.202,-28.452 68.65,-42.958c20.565,-13.91 46.714,-32.226 60.037,-44.081c8.363,-7.442 17.546,-16.107 19.9,-27.051c2.816,-13.093 0.175,-34.606 -3.005,-51.508c-3.206,-17.036 -7.36,-37.138 -16.229,-50.711c-8.767,-13.416 -23.18,-22.58 -36.984,-30.724c-14.997,-8.848 -34.099,-19.124 -52.998,-22.367c-18.958,-3.252 -40.857,1.391 -60.754,2.852c-19.59,1.439 -39.103,3.79 -58.63,5.916c-19.907,2.167 -40.571,4.506 -60.816,7.088c-20.635,2.631 -46.499,7.474 -62.99,8.698c-11.962,0.887 -24.363,0.715 -35.957,-1.36c-11.594,-2.076 -23.492,-6.048 -33.609,-11.094c-9.903,-4.938 -18.741,-11.923 -27.096,-19.178c-9.102,-7.905 -17.101,-20.232 -27.519,-28.249c-11.573,-8.905 -30.227,-17.167 -41.916,-25.182c-9.991,-6.85 -19.518,-16.467 -28.215,-22.904c-7.68,-5.683 -16.101,-10.296 -23.969,-15.714c-10.018,-6.899 -24.422,-16.672 -36.138,-25.678c-12.123,-9.319 -24.652,-20.884 -36.604,-30.239c-11.45,-8.962 -24.335,-16.125 -35.108,-25.89c-14.664,-13.29 -37.353,-36.027 -52.873,-53.853c-14.585,-16.751 -31.511,-39.285 -40.251,-53.1c-5.737,-9.068 -9.81,-19.329 -12.192,-29.791c-3.482,-15.289 -5.973,-45.527 -8.699,-61.94c-2.038,-12.275 -6.118,-24.188 -7.653,-36.536c-2.083,-16.745 -3.501,-47.355 -4.841,-63.934c-0.959,-11.856 -2.464,-23.668 -3.202,-35.539c-0.861,-13.853 -1.895,-33.24 -1.965,-47.575c-0.063,-12.822 1.138,-25.619 1.541,-38.435c0.45,-14.3 -0.741,-39.02 1.16,-47.365c0.785,-3.444 8.985,0.591 10.245,-2.709c1.85,-4.844 2.322,-20.286 0.853,-26.354c-1.094,-4.517 -8.143,-5.659 -9.666,-10.051c-2.302,-6.641 5.755,-29.014 -4.151,-29.794Z" style="fill:#0c4b7e;stroke:#0c4b7e;stroke-width:4.17px;"/><path d="M1481.77,824.651c-3.867,2.171 6.058,26.5 3.171,38.257c-2.888,11.757 -14.375,24.305 -20.497,32.287c-4.568,5.956 -10.544,10.71 -16.234,15.605c-8.107,6.975 -20.812,18.583 -32.411,26.246c-15.314,10.117 -39.539,23.16 -59.471,34.456c-23.221,13.159 -55.561,32.549 -79.852,44.501c-21.322,10.491 -43.404,19.531 -65.893,27.209c-24.81,8.47 -54.939,17.19 -82.967,23.611c-29.061,6.657 -65.44,13.47 -91.398,16.333c-21.324,2.353 -42.907,1.419 -64.352,0.849c-23.192,-0.615 -49.949,-1.999 -74.798,-4.543c-29.269,-2.998 -72.339,-9.69 -100.818,-13.441c-23.343,-3.074 -46.765,-5.578 -70.052,-9.061c-24.898,-3.725 -52.788,-9.633 -79.337,-13.285c-26.549,-3.651 -54.884,-5.276 -79.956,-8.624c-23.592,-3.15 -49.086,-9.032 -70.476,-11.464c-19.194,-2.183 -38.568,-2.306 -57.867,-3.13c-27.635,-1.181 -72.09,-1.654 -107.944,-3.954c-35.803,-2.296 -72.362,-5.082 -107.179,-9.843c-34.161,-4.671 -74.334,-11.455 -101.726,-18.724c-21.714,-5.763 -48.747,-16.18 -62.63,-24.892c-9.686,-6.079 -16.083,-27.76 -20.67,-27.382c-4.588,0.378 -1.921,22.042 -6.855,29.651c-4.934,7.608 -18.618,7.7 -22.751,15.999c-4.433,8.901 -9.785,26.368 -3.849,37.409c6.132,11.404 25.41,23.372 40.639,31.018c18.116,9.095 44.696,18.012 68.052,23.55c27.771,6.586 65.639,12.073 98.575,15.964c32.877,3.883 67.458,4.614 99.041,7.378c30.192,2.642 60.297,6.198 90.455,9.205c34.664,3.456 83.098,8.011 117.529,11.53c29.702,3.035 59.393,6.195 89.057,9.582c40.308,4.601 113.845,12.73 152.793,18.027c27.102,3.686 53.813,9.914 80.894,13.756c33.116,4.698 78.249,13.653 117.803,14.432c41.662,0.821 88.656,-1.923 132.17,-9.509c47.128,-8.217 112.987,-27.711 150.599,-39.788c25.986,-8.344 52.611,-21.908 75.074,-32.676c20.352,-9.756 40.162,-20.645 59.707,-31.933c20.172,-11.651 41.785,-23.963 61.327,-37.971c20.879,-14.965 46.848,-36.399 63.946,-51.824c13.895,-12.535 32.662,-26.933 38.64,-40.727c5.584,-12.886 -0.134,-29.569 -2.773,-42.04c-2.435,-11.509 -8,-26.651 -13.058,-32.786c-3.763,-4.565 -12.372,-0.73 -17.287,-4.024c-7.276,-4.876 -22.505,-27.404 -26.371,-25.234Z" style="fill:#4e4d4f;stroke:#4e4d4f;stroke-width:4.17px;"/><g><path d="M969.422,726.064c6.591,-4.214 21.384,-21.077 25.831,-32.576c4.379,-11.323 1.073,-26.874 0.85,-36.413c-0.163,-6.976 0.914,-14.567 -2.185,-20.819c-3.305,-6.666 -11.529,-15.387 -17.643,-19.176c-5.488,-3.401 -16.109,-4.327 -19.04,-3.557c-2.677,0.702 0.028,5.801 1.451,8.174c1.428,2.38 5.897,3.228 7.114,6.106c1.603,3.792 2.015,11.055 2.507,16.644c0.6,6.823 2.29,16.837 1.096,24.295c-1.162,7.26 -5.689,14.811 -8.26,20.454c-2.099,4.61 -6.257,8.475 -7.162,13.404c-0.905,4.93 -0.843,12.263 1.73,16.174c2.574,3.91 9.35,10.079 13.711,7.29Z" style="fill:#e0c638;stroke:#e0c638;stroke-width:4.17px;"/><path d="M868.354,669.498c2.558,2.381 6.994,4.112 10.154,2.618c4.18,-1.976 10.762,-8.935 14.924,-14.478c4.905,-6.533 11.517,-16.307 14.508,-24.722c2.901,-8.164 3.607,-18.228 3.434,-25.766c-0.153,-6.657 -2.416,-13.734 -4.475,-19.466c-1.902,-5.296 -4.439,-10.476 -7.878,-14.93c-3.54,-4.586 -7.969,-9.7 -13.365,-12.588c-5.414,-2.897 -18.725,-9.478 -19.119,-4.796c-0.183,2.18 -0.06,2.331 2.227,6.474c2.148,3.892 12.547,10.989 13.817,16.58c1.991,8.765 -0.962,21.194 -0.679,26.37c0.41,7.485 -2.676,15.251 -5.299,21.853c-2.535,6.382 -7.684,13.042 -10.439,17.761c-2.048,3.507 -6.444,6.506 -6.091,10.552c0.365,4.182 5.208,11.679 8.281,14.538Z" style="fill:#e0c638;stroke:#e0c638;stroke-width:4.17px;"/><path d="M788.769,617.898c2.685,1.968 6.627,4.697 9.514,3.039c4.616,-2.651 13.319,-11.669 18.186,-18.944c5.334,-7.972 10.832,-19.499 13.814,-28.886c2.799,-8.814 3.44,-18.679 4.076,-27.441c0.606,-8.355 1.504,-17.331 -0.261,-25.129c-1.765,-7.799 -5.716,-16.57 -10.329,-21.661c-4.362,-4.814 -11.284,-7.759 -17.347,-8.886c-6.064,-1.127 -18.311,-0.287 -19.034,2.125c-0.554,1.851 3.928,5.571 8.713,9.364c1.453,1.151 1.468,3.752 4.532,6.418c5.234,4.552 7.031,13.481 8.373,19.787c1.252,5.885 0.971,12.703 -0.321,18.049c-1.243,5.142 -4.851,9.406 -7.433,14.024c-2.816,5.039 -6.123,10.918 -9.464,16.207c-3.447,5.456 -8.609,11.735 -11.216,16.526c-2.071,3.805 -5.757,8.097 -4.427,12.221c1.367,4.234 8.934,10.483 12.624,13.187Z" style="fill:#e0c638;stroke:#e0c638;stroke-width:4.17px;"/><path d="M704.421,546.455c3.995,2.063 11.048,4.57 15.049,1.502c5.256,-4.031 11.926,-17.081 16.491,-25.687c4.396,-8.289 8.217,-16.96 10.897,-25.952c3.526,-11.829 8.663,-33.191 10.258,-45.02c1.157,-8.579 2.609,-19.674 -0.687,-25.959c-3.296,-6.286 -12.22,-9.876 -19.09,-11.755c-6.87,-1.879 -22.011,-2.842 -22.131,0.479c-0.173,4.776 14.637,12.69 17.848,18.997c2.858,5.613 1.883,12.698 1.418,18.843c-0.466,6.146 -1.986,12.273 -4.211,18.03c-2.448,6.329 -6.852,13.367 -10.473,19.946c-3.845,6.983 -9.109,16.025 -12.595,21.955c-2.698,4.589 -6.373,9.672 -8.322,13.629c-1.57,3.189 -4.28,6.679 -3.372,10.115c0.925,3.499 4.926,8.814 8.92,10.877Z" style="fill:#e0c638;stroke:#e0c638;stroke-width:4.17px;"/><path d="M654.841,462.705c-4.844,0.007 -8.539,-5.923 -10.006,-10.54c-1.585,-4.986 -2.605,-14.936 0.499,-19.377c3.103,-4.441 12.012,-5.026 18.123,-7.268c6.54,-2.4 15.05,-2.844 21.116,-7.133c7.264,-5.134 16.783,-15.832 22.464,-23.675c5.106,-7.049 7.211,-17.986 11.622,-23.384c3.66,-4.48 12.064,-11.049 14.839,-9.001c2.775,2.049 2.427,15.379 1.81,21.292c-0.526,5.045 -3.113,9.714 -5.511,14.185c-2.603,4.853 -6.5,10.125 -10.106,14.935c-3.97,5.295 -9.222,11.798 -13.71,16.833c-4.172,4.68 -8.301,9.62 -13.221,13.377c-4.92,3.757 -10.771,6.285 -16.299,9.165c-6.319,3.292 -16.348,10.582 -21.62,10.591Z" style="fill:#e0c638;stroke:#e0c638;stroke-width:4.17px;"/><path d="M633.399,352.881c4.159,2.791 12.778,1.051 19.04,0.021c6.456,-1.062 13.93,-3.644 19.694,-6.394c5.414,-2.583 10.232,-6.325 14.888,-10.107c5.029,-4.084 11.296,-10.215 15.282,-14.398c3.163,-3.318 7.7,-6.214 8.638,-10.701c0.997,-4.772 3.383,-18.132 -2.655,-17.93c-3.616,0.121 -10.974,4.501 -19.085,8.891c-7.861,4.255 -16.463,8.493 -20.98,10.467c-4.799,2.098 -9.922,3.393 -14.993,4.706c-5.172,1.34 -11.808,2.298 -16.036,3.331c-3.161,0.772 -7.714,0.299 -9.332,2.864c-1.617,2.565 -1.149,8.422 -0.371,12.526c0.923,4.875 1.752,13.933 5.91,16.724Z" style="fill:#e0c638;stroke:#e0c638;stroke-width:4.17px;"/><path d="M629.865,241.691c7.17,2.593 20.279,0.146 30.249,-1.436c10.31,-1.635 23.748,-3.653 31.61,-8.376c7.233,-4.346 11.968,-13.297 15.561,-19.967c3.308,-6.141 9.442,-18.557 5.995,-20.05c-3.447,-1.493 -18.802,8.623 -26.678,11.092c-6.651,2.086 -14.264,2.644 -20.577,3.722c-5.756,0.984 -11.812,2.292 -17.3,2.751c-5.193,0.434 -11.357,-0.192 -15.634,-0c-3.36,0.151 -7.592,-1.169 -10.025,1.154c-2.667,2.545 -7.063,9.128 -5.972,14.12c1.134,5.185 6.108,14.581 12.771,16.99Z" style="fill:#e0c638;stroke:#e0c638;stroke-width:4.17px;"/><path d="M776.53,319.444c0.295,3.435 -6.845,8.828 -8.546,5.829c-6.685,-11.783 -21.846,-56.884 -31.561,-76.529c-7.274,-14.709 -19.065,-29.667 -26.727,-41.339c-6.321,-9.628 -13.183,-19.909 -19.248,-28.694c-5.588,-8.095 -10.167,-17.084 -17.143,-24.019c-7.96,-7.914 -21.251,-16.289 -30.617,-23.468c-8.525,-6.536 -20.057,-15.481 -25.576,-19.608c-2.438,-1.823 -7.345,-2.116 -7.539,-5.153c-0.235,-3.676 3.345,-13.544 6.13,-16.9c2.355,-2.838 7.159,-4.614 10.58,-3.236c3.822,1.539 7.802,8.789 12.349,12.469c6.577,5.321 18.643,12.243 27.109,19.457c9.081,7.738 19.018,18.446 27.382,26.974c7.759,7.911 16.397,15.893 22.8,24.192c6.106,7.915 11.362,17.324 15.616,25.603c3.966,7.719 8.257,16.52 9.908,24.075c1.513,6.921 -1.915,14.698 0,21.252c1.916,6.553 8.114,11.781 11.492,18.069c3.816,7.101 8.149,16.128 11.402,24.541c3.931,10.171 11.581,29.432 12.189,36.485Z" style="fill:#e0c638;stroke:#e0c638;stroke-width:4.17px;"/></g><g><path d="M633.645,197.694c-4.38,0.462 -10.999,2.191 -14.575,6.048c-3.647,3.933 -6.051,11.339 -7.307,17.549c-1.322,6.534 -2.153,16.047 -0.625,21.65c1.356,4.974 5.833,9.342 9.794,11.968c3.961,2.627 9.168,4.25 13.972,3.792c4.946,-0.472 12.162,-3.051 15.703,-6.622c3.54,-3.572 5.165,-9.551 5.541,-14.808c0.468,-6.549 -0.933,-18.435 -2.732,-24.486c-1.36,-4.572 -4.772,-9.303 -8.067,-11.819c-3.22,-2.458 -7.676,-3.698 -11.704,-3.272Zm4.687,13.185c-1.512,-3.305 -7.999,-2.664 -10.892,-0.465c-2.979,2.264 -5.88,9.185 -6.982,14.048c-1.101,4.862 -1.187,10.991 0.373,15.127c1.554,4.122 5.27,8.834 8.986,9.689c3.716,0.855 12.294,0.018 13.31,-4.56c1.419,-6.4 -2.181,-28.122 -4.795,-33.839Z" style="fill:#4e4d4f;stroke:#4e4d4f;stroke-width:4.17px;"/><path d="M641.82,307.732c-5.113,-0.161 -11.446,2.793 -15.237,6.441c-3.792,3.648 -6.397,9.832 -7.514,15.448c-1.256,6.317 -1.811,16.047 -0.025,22.454c1.724,6.186 6.025,12.966 10.742,15.991c4.717,3.025 12.038,3.629 17.56,2.159c5.522,-1.469 12.73,-5.295 15.57,-10.975c2.909,-5.817 2.827,-16.577 1.883,-23.929c-0.913,-7.124 -3.712,-15.586 -7.542,-20.184c-3.653,-4.386 -10.325,-7.245 -15.437,-7.405Zm-5.242,13.075c-4.136,0.853 -8.799,7.183 -9.981,11.913c-1.183,4.729 0.417,12.658 2.886,16.465c2.453,3.782 8.45,6.22 11.929,6.372c3.478,0.153 7.066,-2.832 8.941,-5.456c1.876,-2.623 2.145,-6.774 2.31,-10.284c0.176,-3.75 1.39,-9.089 -1.253,-12.214c-2.681,-3.168 -10.697,-7.648 -14.832,-6.796Z" style="fill:#4e4d4f;stroke:#4e4d4f;stroke-width:4.17px;"/><path d="M649.273,414.256c-4.831,2.049 -8.945,6.59 -11.416,10.837c-2.472,4.247 -3.144,9.64 -3.413,14.646c-0.291,5.413 -0.007,12.754 1.665,17.836c1.582,4.804 4.389,9.538 8.371,12.656c4.004,3.134 10.056,5.842 15.653,6.149c5.722,0.313 14.285,-0.214 18.677,-4.267c4.391,-4.053 7.113,-12.916 7.671,-20.05c0.637,-8.134 -0.948,-22.049 -3.85,-28.75c-2.352,-5.431 -8.001,-9.949 -13.561,-11.459c-5.559,-1.509 -14.595,0.195 -19.797,2.402Zm6.653,10.844c-4.442,0.484 -8.991,4.674 -10.789,8.035c-1.798,3.361 -0.719,8.151 0,12.13c0.863,4.769 1.854,14.011 5.175,16.486c3.321,2.474 10.644,0.669 14.752,-1.637c4.108,-2.306 8.773,-7.219 9.895,-12.2c1.121,-4.98 0.006,-13.882 -3.166,-17.684c-3.173,-3.802 -11.424,-5.615 -15.867,-5.13Z" style="fill:#4e4d4f;stroke:#4e4d4f;stroke-width:4.17px;"/><path d="M711.45,498.367c-4.369,0.562 -11.5,2.873 -15.256,6.593c-3.755,3.721 -6.052,10.084 -7.275,15.73c-1.282,5.918 -2.302,13.823 -0.416,19.779c1.886,5.957 6.813,12.538 11.732,15.961c4.919,3.422 11.831,5.981 17.782,4.573c5.95,-1.408 13.694,-8.132 17.92,-13.021c3.908,-4.521 7.028,-10.419 7.435,-16.314c0.407,-5.894 -1.498,-14.041 -4.992,-19.054c-3.495,-5.013 -11.487,-8.651 -15.975,-11.025c-3.365,-1.78 -7.18,-3.708 -10.955,-3.222Zm-4.315,12.332c-2.588,1.548 -6.081,6.249 -7.265,10.272c-1.21,4.115 -1.77,10.186 0,14.419c1.771,4.232 6.193,9.89 10.623,10.975c4.431,1.086 12.018,-1.459 15.962,-4.461c3.944,-3.003 7.487,-9.343 7.701,-13.555c0.214,-4.212 -3.291,-8.937 -6.417,-11.716c-3.127,-2.778 -8.909,-3.964 -12.343,-4.953c-2.665,-0.767 -5.882,-2.405 -8.261,-0.981Z" style="fill:#4e4d4f;stroke:#4e4d4f;stroke-width:4.17px;"/><path d="M809.197,580.817c-5.151,-3.336 -13.973,-7.073 -19.108,-7.32c-4.355,-0.21 -8.875,2.52 -11.706,5.836c-3.422,4.01 -8.054,11.521 -8.831,18.227c-0.799,6.894 0.913,17.629 4.039,23.134c2.92,5.141 8.967,8.534 14.72,9.895c6.094,1.441 16.235,1.562 21.847,-1.249c5.612,-2.811 10.016,-9.644 11.822,-15.615c1.807,-5.972 1.146,-14.731 -0.985,-20.215c-2.091,-5.385 -6.949,-9.554 -11.798,-12.693Zm-3.209,11.695c-4.244,-2.633 -14.392,-7.629 -18.789,-7.002c-4.346,0.62 -6.895,6.516 -7.592,10.763c-0.698,4.248 0.533,11.272 3.407,14.724c2.874,3.451 9.703,6.174 13.837,5.985c4.134,-0.188 8.33,-4.504 10.966,-7.117c2.329,-2.308 5.154,-5.665 4.849,-8.557c-0.305,-2.892 -3.55,-6.855 -6.678,-8.796Z" style="fill:#4e4d4f;stroke:#4e4d4f;stroke-width:4.17px;"/><path d="M874.199,625.264c-5.648,0.723 -14.65,2.743 -18.514,7.326c-3.865,4.584 -5.304,13.3 -4.675,20.174c0.661,7.226 2.993,17.792 8.639,23.184c5.645,5.392 17.758,10.012 25.235,9.168c7.476,-0.843 16.14,-7.294 19.623,-14.23c3.484,-6.936 3.768,-20.28 1.279,-27.385c-2.452,-7.002 -10.948,-12.208 -16.213,-15.247c-4.521,-2.611 -10.196,-3.653 -15.374,-2.99Zm11.14,19.897c-4.818,-3.358 -13.847,-7.172 -17.658,-6.722c-3.564,0.42 -5.183,5.832 -5.211,9.42c-0.038,4.772 1.195,15.48 4.986,19.208c3.79,3.729 12.9,4.576 17.755,3.162c4.856,-1.414 11.355,-7.466 11.377,-11.644c0.021,-4.178 -6.459,-10.087 -11.249,-13.424Z" style="fill:#4e4d4f;stroke:#4e4d4f;stroke-width:4.17px;"/><path d="M962.201,677.327c-6.597,-0.303 -13.455,5.108 -16.495,10.97c-3.043,5.866 -3.719,16.726 -1.763,24.225c1.956,7.5 6.405,17.533 13.498,20.772c7.093,3.239 22.823,3.282 29.063,-1.339c6.239,-4.621 8.386,-19.424 8.376,-26.388c-0.008,-5.853 -4.006,-11.572 -8.434,-15.399c-5.447,-4.706 -17.455,-12.529 -24.245,-12.841Zm-1.358,14.269c-5.18,0.838 -7.458,10.953 -6.994,15.743c0.465,4.791 5.236,11.829 9.782,13c4.545,1.172 13.942,-2.966 17.493,-5.971c3.216,-2.722 6.611,-8.907 3.808,-12.054c-3.38,-3.795 -18.908,-11.555 -24.089,-10.718Z" style="fill:#4e4d4f;stroke:#4e4d4f;stroke-width:4.17px;"/><path d="M600.966,95.675c2.069,-4.943 8.4,-10.556 12.602,-13.377c3.627,-2.434 8.343,-3.749 12.615,-3.547c4.271,0.201 9.666,2.004 13.013,4.757c3.348,2.752 5.579,7.787 7.071,11.756c1.431,3.808 1.734,7.993 1.878,12.058c0.177,5.03 0.646,13.09 -0.813,18.123c-1.34,4.626 -4.367,9.228 -7.937,12.075c-3.57,2.846 -8.695,5.275 -13.481,5.005c-5.041,-0.286 -12.793,-3.82 -16.763,-6.717c-3.443,-2.512 -5.724,-6.687 -7.056,-10.662c-1.333,-3.975 -0.77,-8.785 -0.939,-13.189c-0.188,-4.912 -2.259,-11.339 -0.19,-16.282Zm31.775,30.491c-3.606,1.759 -11.071,0.22 -14.791,-2.504c-3.721,-2.725 -6.709,-8.881 -7.53,-13.842c-0.82,-4.96 0.724,-12.345 2.609,-15.923c1.603,-3.043 5.272,-5.277 8.701,-5.545c3.646,-0.285 9.984,1.681 13.175,3.836c3.004,2.028 5.188,5.603 5.968,9.09c0.779,3.487 -0.059,8.059 -1.291,11.829c-1.355,4.149 -3.236,11.3 -6.841,13.059Z" style="fill:#4e4d4f;stroke:#4e4d4f;stroke-width:4.17px;"/></g><g><path d="M959.864,706.177c2.494,3.038 2.354,12.64 11.048,9.548c5.151,-1.831 20.072,-14.912 22.319,-17.957c6.04,-8.184 2.758,-30.441 2.872,-40.693c0.078,-6.977 0.914,-14.567 -2.185,-20.819c-3.305,-6.666 -11.529,-15.387 -17.643,-19.176c-5.488,-3.401 -16.109,-4.327 -19.04,-3.557c-2.677,0.702 0.028,5.801 1.451,8.174c1.428,2.38 5.897,3.228 7.114,6.106c1.603,3.792 2.015,11.055 2.507,16.644c0.6,6.823 2.194,16.263 1.096,24.295c-1.407,10.288 -13.511,32.597 -9.539,37.435Z" style="fill:#e0c638;stroke:#e0c638;stroke-width:4.17px;"/><path d="M866.928,650.593c1.377,6.5 11.103,18 17.939,15.054c6.835,-2.946 18.655,-22.981 23.073,-32.731c3.576,-7.892 3.607,-18.228 3.434,-25.766c-0.153,-6.657 -2.416,-13.734 -4.475,-19.466c-1.902,-5.296 -4.439,-10.476 -7.878,-14.93c-3.54,-4.586 -7.969,-9.7 -13.365,-12.588c-5.414,-2.897 -18.725,-9.478 -19.119,-4.796c-0.183,2.18 -0.06,2.331 2.227,6.474c2.148,3.892 12.547,10.989 13.817,16.58c1.991,8.765 -0.962,21.194 -0.679,26.37c0.41,7.485 -2.969,14.729 -5.299,21.853c-2.496,7.633 -11.053,17.446 -9.675,23.946Z" style="fill:#e0c638;stroke:#e0c638;stroke-width:4.17px;"/><path d="M785.602,606.203c1.872,3.528 3.411,4.898 10.39,5.965c3.662,0.56 12.416,-6.016 16.702,-9.859c3.346,-3.001 7.81,-7.803 10.781,-11.797c3.658,-4.916 6.039,-11.649 6.808,-17.405c1.224,-9.166 3.44,-18.679 4.076,-27.441c0.606,-8.355 1.504,-17.331 -0.261,-25.129c-1.765,-7.799 -5.716,-16.57 -10.329,-21.661c-4.362,-4.814 -11.284,-7.759 -17.347,-8.886c-6.064,-1.127 -18.311,-0.287 -19.034,2.125c-0.554,1.851 3.928,5.571 8.713,9.364c1.453,1.151 1.468,3.752 4.532,6.418c5.234,4.552 7.031,13.481 8.373,19.787c1.252,5.885 0.971,12.703 -0.321,18.049c-1.243,5.142 -4.214,9.825 -7.433,14.024c-3.88,5.062 -13.003,20.957 -16.549,31.14c-2.427,6.971 -0.982,11.761 0.899,15.306Z" style="fill:#e0c638;stroke:#e0c638;stroke-width:4.17px;"/><path d="M709.072,539.546c2.453,2.918 8.226,2.325 11.433,0.265c1.628,-1.046 3.384,-1.098 5.404,-3.186c3.539,-3.658 7.48,-10.111 10.052,-14.355c4.392,-7.249 8.217,-16.96 10.897,-25.952c3.526,-11.829 8.663,-33.191 10.258,-45.02c1.157,-8.579 2.609,-19.674 -0.687,-25.959c-3.296,-6.286 -12.22,-9.876 -19.09,-11.755c-6.87,-1.879 -22.011,-2.842 -22.131,0.479c-0.173,4.776 14.637,12.69 17.848,18.997c2.858,5.613 1.883,12.698 1.418,18.843c-0.466,6.146 -1.986,12.273 -4.211,18.03c-2.448,6.329 -7.096,13.238 -10.473,19.946c-4.277,8.494 -13.4,22.744 -15.186,31.022c-1.348,6.247 1.817,15.494 4.468,18.645Z" style="fill:#e0c638;stroke:#e0c638;stroke-width:4.17px;"/><path d="M652.85,457.049c-1.819,-3.205 -5.092,-16.249 -1.945,-23.425c3.035,-6.921 23.534,-8.917 33.668,-15.237c9.231,-5.756 16.783,-15.832 22.464,-23.675c5.106,-7.049 7.211,-17.986 11.622,-23.384c3.66,-4.48 12.064,-11.049 14.839,-9.001c2.775,2.049 2.427,15.379 1.81,21.292c-0.526,5.045 -3.113,9.714 -5.511,14.185c-2.603,4.853 -6.5,10.125 -10.106,14.935c-3.97,5.295 -9.222,11.798 -13.71,16.833c-4.172,4.68 -8.102,9.758 -13.221,13.377c-9.402,6.649 -36.104,20.805 -39.91,14.1Z" style="fill:#e0c638;stroke:#e0c638;stroke-width:4.17px;"/><path d="M636.406,326.009c-5.179,6.15 -5.518,20.99 0.326,24.119c3.72,1.993 13.311,1.429 21.598,-0.023c4.729,-0.828 8.116,-1.013 11.144,-1.804c6.288,-1.644 12.076,-7.517 17.547,-11.9c5.463,-4.375 11.296,-10.215 15.282,-14.398c3.163,-3.318 7.7,-6.214 8.638,-10.701c0.997,-4.772 3.383,-18.132 -2.655,-17.93c-3.616,0.121 -10.974,4.501 -19.085,8.891c-7.861,4.255 -16.463,8.493 -20.98,10.467c-4.799,2.098 -26.567,7.046 -31.815,13.279Z" style="fill:#e0c638;stroke:#e0c638;stroke-width:4.17px;"/><path d="M628.259,240.766c4.978,4.404 21.338,0.962 31.855,-0.511c10.577,-1.481 23.748,-3.653 31.61,-8.376c7.233,-4.346 11.968,-13.297 15.561,-19.967c3.308,-6.141 9.442,-18.557 5.995,-20.05c-3.447,-1.493 -17.368,8.629 -26.678,11.092c-13.838,3.663 -51.079,5.84 -56.354,10.881c-8.384,8.013 -6.966,22.528 -1.989,26.931Z" style="fill:#e0c638;stroke:#e0c638;stroke-width:4.17px;"/><path d="M776.53,319.444c0.295,3.435 -6.845,8.828 -8.546,5.829c-6.685,-11.783 -21.846,-56.884 -31.561,-76.529c-7.274,-14.709 -19.065,-29.667 -26.727,-41.339c-6.321,-9.628 -13.183,-19.909 -19.248,-28.694c-5.588,-8.095 -10.073,-17.18 -17.143,-24.019c-10.629,-10.281 -38.845,-27.423 -46.636,-37.671c-4.805,-6.321 -6.619,-24.026 -0.107,-23.82c6.512,0.205 28.085,16.381 39.179,25.052c10.094,7.89 19.018,18.446 27.382,26.974c7.759,7.911 16.397,15.893 22.8,24.192c6.106,7.915 11.362,17.324 15.616,25.603c3.966,7.719 8.257,16.52 9.908,24.075c1.513,6.921 -1.915,14.698 0,21.252c1.916,6.553 8.114,11.781 11.492,18.069c3.816,7.101 8.149,16.128 11.402,24.541c3.931,10.171 11.581,29.432 12.189,36.485Z" style="fill:#e0c638;stroke:#e0c638;stroke-width:4.17px;"/></g><g><path d="M1508.76,892.034c0.285,1.637 0.856,4.91 0.517,7.339c-0.377,2.694 -1.205,6.173 -2.777,8.826c-1.605,2.707 -4.621,5.101 -6.851,7.417c-2.126,2.208 -3.916,4.873 -6.528,6.477c-2.694,1.655 -7.324,2.854 -9.639,3.453" style="fill:#e0c638;stroke:#e0c638;stroke-width:8.33px;"/><path d="M1479.15,930.295c0.03,1.271 0.089,3.813 -0.361,5.643c-0.514,2.088 -1.293,4.905 -2.723,6.887c-1.43,1.981 -3.74,3.552 -5.859,5.003c-2.409,1.649 -5.644,3.425 -8.597,4.893c-2.956,1.469 -6.108,2.578 -9.139,3.92c-3.137,1.389 -7.501,3.406 -9.682,4.414" style="fill:#e0c638;stroke:#e0c638;stroke-width:8.33px;"/><path d="M1435.93,965.714c-0.844,2.264 -2.532,6.793 -4.412,9.504c-1.831,2.639 -4.459,5.138 -6.87,6.757c-2.256,1.514 -5.153,1.783 -7.596,2.953c-2.442,1.17 -4.589,2.939 -7.06,4.067c-2.834,1.293 -7.444,3.129 -9.942,3.692c-1.644,0.372 -3.913,-0.082 -5.047,-0.309" style="fill:#e0c638;stroke:#e0c638;stroke-width:8.33px;"/><path d="M1389.04,997.635c-0.196,1.41 -0.588,4.23 -1.896,5.779c-1.474,1.747 -4.668,3.384 -6.951,4.7c-2.156,1.242 -4.639,1.872 -6.747,3.193c-2.842,1.78 -6.644,5.913 -10.304,7.489c-3.619,1.558 -8.175,1.373 -11.656,1.967c-3.08,0.526 -7.183,1.241 -9.235,1.599" style="fill:#e0c638;stroke:#e0c638;stroke-width:8.33px;"/><path d="M1336.96,1025.06c-1.041,1.564 -3.123,4.691 -5.271,6.452c-2.648,2.171 -6.926,4.646 -10.615,6.571c-4.021,2.097 -8.922,4.208 -13.507,6.015c-4.594,1.81 -10.048,3.697 -14.059,4.848c-3.272,0.939 -7.76,1.686 -10.004,2.059" style="fill:#e0c638;stroke:#e0c638;stroke-width:8.33px;"/><path d="M1277.75,1054.04c-1.243,1.339 -3.729,4.018 -5.981,5.537c-2.856,1.926 -7.509,4.418 -11.152,6.015c-3.445,1.51 -7.109,2.468 -10.707,3.567c-4.342,1.326 -10.7,3.353 -15.345,4.388c-4.116,0.918 -9.719,1.521 -12.52,1.823" style="fill:#e0c638;stroke:#e0c638;stroke-width:8.33px;"/><path d="M1216.42,1077.95c-1.532,1.658 -4.597,4.975 -7.075,6.568c-2.341,1.504 -5.168,2.072 -7.795,2.99c-3.034,1.06 -6.906,2.352 -10.407,3.37c-4.27,1.241 -10.887,3.354 -15.215,4.079c-3.536,0.592 -7.172,0.103 -10.753,0.269c-4.18,0.193 -10.943,0.658 -14.325,0.89" style="fill:#e0c638;stroke:#e0c638;stroke-width:8.33px;"/><path d="M1143.89,1099.76c-2.26,1.971 -6.779,5.913 -10.031,7.504c-2.903,1.421 -6.299,1.463 -9.479,2.042c-3.615,0.657 -8.112,1.502 -12.212,1.903c-4.529,0.443 -9.984,0.356 -14.961,0.756c-5.02,0.404 -11.776,1.247 -15.154,1.668" style="fill:#e0c638;stroke:#e0c638;stroke-width:8.33px;"/><path d="M1068.95,1115.28c-3.416,1.612 -10.247,4.836 -15.744,5.973c-6.054,1.252 -13.712,1.189 -20.583,1.54c-6.898,0.352 -15.845,0.587 -20.808,0.575c-2.998,-0.007 -6.98,-0.432 -8.97,-0.645" style="fill:#e0c638;stroke:#e0c638;stroke-width:8.33px;"/><path d="M992.983,1123.51c-4.611,0.845 -13.832,2.536 -20.77,2.97c-6.937,0.434 -14.24,-0.099 -20.856,-0.364c-6.29,-0.252 -14.238,-0.523 -18.845,-1.227c-3.061,-0.468 -6.882,-2.155 -8.793,-2.999" style="fill:#e0c638;stroke:#e0c638;stroke-width:8.33px;"/><path d="M915.051,1120.77c-2.154,1.339 -6.46,4.017 -10.118,4.636c-4.198,0.711 -10.076,0.198 -15.068,-0.371c-5.465,-0.623 -12.198,-2.284 -17.719,-3.366c-5.143,-1.008 -11.595,-1.99 -15.408,-3.128c-2.664,-0.796 -5.871,-2.734 -7.474,-3.703" style="fill:#e0c638;stroke:#e0c638;stroke-width:8.33px;"/><path d="M837.484,1115.6c-3.563,-0.292 -10.689,-0.877 -15.976,-1.732c-5.433,-0.879 -11.07,-2.411 -16.62,-3.541c-5.632,-1.148 -12.344,-1.945 -17.169,-3.343c-4.104,-1.189 -9.224,-3.76 -11.784,-5.045" style="fill:#e0c638;stroke:#e0c638;stroke-width:8.33px;"/><path d="M766.144,1099.5c-0.852,0.47 -2.556,1.411 -3.971,1.58c-2.564,0.305 -7.628,0.637 -11.414,0.251c-4.625,-0.471 -11.321,-1.721 -16.336,-3.078c-4.716,-1.276 -9.606,-3.452 -13.753,-5.062c-3.741,-1.452 -8.665,-3.548 -11.127,-4.596" style="fill:#e0c638;stroke:#e0c638;stroke-width:8.33px;"/><path d="M699.99,1087.52c-1.85,0.518 -5.55,1.553 -8.405,1.796c-3.397,0.289 -7.998,0.279 -11.976,-0.059c-4.321,-0.368 -9.482,-0.671 -13.949,-2.146c-4.508,-1.488 -9.638,-4.881 -13.102,-6.783c-2.622,-1.44 -5.999,-3.568 -7.687,-4.632" style="fill:#e0c638;stroke:#e0c638;stroke-width:8.33px;"/><path d="M631.212,1075.68c-2.295,0.988 -6.886,2.965 -10.478,4.002c-3.739,1.079 -7.891,2.701 -11.954,2.474c-4.988,-0.279 -13.702,-2.848 -17.973,-4.146c-2.702,-0.822 -6,-2.702 -7.649,-3.642" style="fill:#e0c638;stroke:#e0c638;stroke-width:8.33px;"/><path d="M569.722,1071.05c-4.292,1.388 -12.877,4.163 -18.684,4.778c-5.369,0.569 -10.829,-0.227 -16.158,-1.086c-5.638,-0.91 -13.411,-2.759 -17.671,-4.37c-2.963,-1.12 -6.247,-3.905 -7.89,-5.298" style="fill:#e0c638;stroke:#e0c638;stroke-width:8.33px;"/><path d="M499.015,1062.54c-1.432,0.904 -4.294,2.711 -6.731,3.183c-3.277,0.636 -8.625,0.904 -12.933,0.63c-4.717,-0.299 -10.706,-1.171 -15.368,-2.426c-4.378,-1.178 -9.863,-3.793 -12.606,-5.101" style="fill:#e0c638;stroke:#e0c638;stroke-width:8.33px;"/><path d="M438.475,1055.16c-2.545,1.121 -7.635,3.362 -11.708,4.026c-4.913,0.801 -12.167,1.308 -17.769,0.778c-5.42,-0.514 -11.073,-2.529 -15.844,-3.96c-4.342,-1.302 -9.971,-3.517 -12.786,-4.624" style="fill:#e0c638;stroke:#e0c638;stroke-width:8.33px;"/><path d="M370.982,1050.18c-3.599,1.206 -10.798,3.619 -16.188,4.278c-5.346,0.652 -11.276,0.266 -16.154,-0.329c-4.47,-0.545 -9.353,-2.136 -13.114,-3.24c-3.21,-0.943 -7.37,-2.572 -9.449,-3.386" style="fill:#e0c638;stroke:#e0c638;stroke-width:8.33px;"/><path d="M308.092,1046.96c-1.838,0.641 -5.515,1.923 -8.394,2.231c-3.473,0.371 -8.97,-0 -12.446,-0c-2.803,-0 -5.696,0.069 -8.407,-0c-2.624,-0.068 -5.241,-0.299 -7.862,-0.419c-2.884,-0.132 -6.328,-0.052 -9.442,-0.373c-3.107,-0.32 -6.6,-0.869 -9.241,-1.553c-2.285,-0.591 -5.166,-1.897 -6.606,-2.55" style="fill:#e0c638;stroke:#e0c638;stroke-width:8.33px;"/><path d="M236.914,1041.01c-1.841,1.008 -5.523,3.025 -8.574,3.459c-3.893,0.554 -9.867,0.203 -14.783,-0.135c-5.071,-0.349 -10.463,-1.078 -15.645,-1.957c-5.775,-0.979 -14.295,-2.084 -19.007,-3.917c-3.624,-1.409 -7.386,-5.191 -9.267,-7.081" style="fill:#e0c638;stroke:#e0c638;stroke-width:8.33px;"/><path d="M158.479,1032.27c-1.772,0.039 -5.317,0.118 -7.976,0.131c-3.274,0.018 -7.8,0.389 -11.666,-0.028c-4.123,-0.444 -9.343,-1.786 -13.07,-2.636c-3.125,-0.713 -6.376,-1.142 -9.295,-2.466c-3.604,-1.635 -9.423,-5.442 -12.333,-7.345" style="fill:#e0c638;stroke:#e0c638;stroke-width:8.33px;"/><path d="M94.87,1015.44c-3.033,0.049 -9.099,0.147 -13.523,-0.75c-4.442,-0.9 -9.302,-2.937 -13.128,-4.652c-3.446,-1.544 -7.06,-3.472 -9.827,-5.637c-2.625,-2.053 -5.392,-5.585 -6.775,-7.351" style="fill:#e0c638;stroke:#e0c638;stroke-width:8.33px;"/><path d="M45.208,994.085c-1.999,-0.514 -5.995,-1.542 -8.348,-3.367c-2.352,-1.824 -4.629,-5.661 -5.768,-7.579" style="fill:#e0c638;stroke:#e0c638;stroke-width:8.33px;"/><path d="M29.232,976.364c-0.04,-1.986 -0.119,-5.958 -0,-8.226c0.094,-1.808 0.505,-4.192 0.711,-5.384" style="fill:#e0c638;stroke:#e0c638;stroke-width:8.33px;"/></g></g></svg>